# xmcd
#
# Track frame offsets:
#	150
#	15321
#	26134
#	38495
#	49107
#	64757
#	78049
#	86850
#	99983
#	112066
#	123642
#	136047
#	149695
#	164017
#	172411
#	187285
#	202855
#
# Disc length: 2737 seconds
#
# Revision: 5
# Processed by: cddbd v1.5.2PL0 Copyright (c) Steve Scherf et al.
# Submitted via: audiograbber 1.83.01
#
DISCID=f10aaf11
DTITLE=Mad Sin - Survival Of The Sickest
DYEAR=2002
DGENRE=Psychobilly
TTITLE0=Communication Breakdown
TTITLE1=Revenge
TTITLE2=Sin Is Law
TTITLE3=Nothing's Alright
TTITLE4=1000 Eyes
TTITLE5=Conquer The World
TTITLE6=Sweet Caroline
TTITLE7=Psycho Sideshow
TTITLE8=Love Is Dead
TTITLE9=Where The Wild Things Are
TTITLE10=She's So Bad It's Good
TTITLE11=Senseless Species
TTITLE12=Dangerzone
TTITLE13=Delirium
TTITLE14=Bloody Monday
TTITLE15=Class War Path
TTITLE16=Outro
EXTD=YEAR: 2002
EXTT0=
EXTT1=
EXTT2=
EXTT3=
EXTT4=
EXTT5=
EXTT6=
EXTT7=
EXTT8=
EXTT9=
EXTT10=
EXTT11=
EXTT12=
EXTT13=
EXTT14=
EXTT15=
EXTT16=
PLAYORDER=
